0
SECTION
2
HEADER
9
$INSUNITS
70
4
9
$ACADVER
1
AC1014
9
$HANDSEED
5
FFFF
0
ENDSEC
0
SECTION
2
TABLES
0
TABLE
2
VPORT
5
8
100
AcDbSymbolTable
0
ENDTAB
0
TABLE
2
LTYPE
5
5
100
AcDbSymbolTable
0
LTYPE
5
14
100
AcDbSymbolTableRecord
100
AcDbLinetypeTableRecord
2
BYBLOCK
70
0
0
LTYPE
5
15
100
AcDbSymbolTableRecord
100
AcDbLinetypeTableRecord
2
BYLAYER
70
0
0
ENDTAB
0
TABLE
2
LAYER
5
2
100
AcDbSymbolTable
70
2
0
LAYER
5
50
100
AcDbSymbolTableRecord
100
AcDbLayerTableRecord
2
0
70
0
6
CONTINUOUS
0
ENDTAB
0
TABLE
2
STYLE
5
3
100
AcDbSymbolTable
70
1
0
STYLE
5
11
100
AcDbSymbolTableRecord
100
AcDbTextStyleTableRecord
2
STANDARD
70
0
0
ENDTAB
0
TABLE
2
VIEW
5
6
100
AcDbSymbolTable
70
0
0
ENDTAB
0
TABLE
2
UCS
5
7
100
AcDbSymbolTable
70
0
0
ENDTAB
0
TABLE
2
APPID
5
9
100
AcDbSymbolTable
70
2
0
APPID
5
12
100
AcDbSymbolTableRecord
100
AcDbRegAppTableRecord
2
ACAD
70
0
0
ENDTAB
0
TABLE
2
DIMSTYLE
5
A
100
AcDbSymbolTable
70
1
0
ENDTAB
0
TABLE
2
BLOCK_RECORD
5
1
100
AcDbSymbolTable
70
1
0
BLOCK_RECORD
5
1F
100
AcDbSymbolTableRecord
100
AcDbBlockTableRecord
2
*MODEL_SPACE
0
BLOCK_RECORD
5
1B
100
AcDbSymbolTableRecord
100
AcDbBlockTableRecord
2
*PAPER_SPACE
0
ENDTAB
0
ENDSEC
0
SECTION
2
BLOCKS
0
BLOCK
5
20
100
AcDbEntity
100
AcDbBlockBegin
2
*MODEL_SPACE
0
ENDBLK
5
21
100
AcDbEntity
100
AcDbBlockEnd
0
BLOCK
5
1C
100
AcDbEntity
100
AcDbBlockBegin
2
*PAPER_SPACE
0
ENDBLK
5
1D
100
AcDbEntity
100
AcDbBlockEnd
0
ENDSEC
0
SECTION
2
ENTITIES
0
LWPOLYLINE
5
100
100
AcDbEntity
8
0
100
AcDbPolyline
90
16
70
1
43
0.0
10
-320.75
20
-254.50000000000011
10
-279.25000000000006
20
-254.50000000000011
10
-279.25000000000006
20
-269.50000000000011
10
-283.25
20
-269.50000000000011
10
-283.25
20
-284.50000000000011
10
-279.25000000000006
20
-284.50000000000011
10
-279.25000000000006
20
-299.50000000000011
10
-294.25000000000006
20
-299.50000000000011
10
-294.25000000000006
20
-295.50000000000011
10
-305.75
20
-295.50000000000011
10
-305.75
20
-299.50000000000011
10
-320.75
20
-299.50000000000011
10
-320.75
20
-284.50000000000011
10
-316.75000000000006
20
-284.50000000000011
10
-316.75000000000006
20
-269.50000000000011
10
-320.75
20
-269.50000000000011
0
LWPOLYLINE
5
101
100
AcDbEntity
8
0
100
AcDbPolyline
90
16
70
1
43
0.0
10
-320.75
20
-206.50000000000009
10
-279.25000000000006
20
-206.50000000000009
10
-279.25000000000006
20
-221.50000000000009
10
-283.25
20
-221.50000000000009
10
-283.25
20
-236.50000000000009
10
-279.25000000000006
20
-236.50000000000009
10
-279.25000000000006
20
-251.50000000000009
10
-294.25000000000006
20
-251.50000000000009
10
-294.25000000000006
20
-247.50000000000011
10
-305.75
20
-247.50000000000011
10
-305.75
20
-251.50000000000009
10
-320.75
20
-251.50000000000009
10
-320.75
20
-236.50000000000009
10
-316.75000000000006
20
-236.50000000000009
10
-316.75000000000006
20
-221.50000000000009
10
-320.75
20
-221.50000000000009
0
LWPOLYLINE
5
102
100
AcDbEntity
8
0
100
AcDbPolyline
90
20
70
1
43
0.0
10
-320.75
20
-199.50000000000006
10
-320.75
20
-124.50000000000006
10
-305.75000000000006
20
-124.50000000000009
10
-305.75000000000006
20
-120.50000000000009
10
-290.75000000000006
20
-120.50000000000009
10
-290.75000000000006
20
-124.50000000000009
10
-275.75000000000006
20
-124.50000000000009
10
-275.75000000000006
20
-135.50000000000009
10
-279.75000000000006
20
-135.50000000000009
10
-279.75000000000006
20
-147.00000000000009
10
-275.75000000000006
20
-147.00000000000009
10
-275.75000000000006
20
-177.00000000000006
10
-279.75000000000006
20
-177.00000000000006
10
-279.75000000000006
20
-188.50000000000006
10
-275.75000000000006
20
-188.50000000000009
10
-275.75000000000006
20
-199.50000000000011
10
-290.75000000000006
20
-199.50000000000011
10
-290.75000000000006
20
-203.50000000000009
10
-305.75000000000006
20
-203.50000000000009
10
-305.75000000000006
20
-199.50000000000011
0
LWPOLYLINE
5
103
100
AcDbEntity
8
0
100
AcDbPolyline
90
20
70
1
43
0.0
10
-320.75
20
-113.50000000000006
10
-320.75
20
-38.500000000000057
10
-305.75
20
-38.500000000000057
10
-305.75
20
-34.500000000000057
10
-290.75
20
-34.500000000000057
10
-290.75
20
-38.500000000000057
10
-275.75
20
-38.500000000000057
10
-275.75
20
-49.500000000000057
10
-279.75
20
-49.500000000000057
10
-279.75
20
-61.000000000000057
10
-275.75
20
-61.000000000000057
10
-275.75
20
-91.000000000000057
10
-279.75
20
-91.000000000000057
10
-279.75
20
-102.50000000000007
10
-275.75
20
-102.50000000000007
10
-275.75
20
-113.50000000000006
10
-290.75
20
-113.50000000000006
10
-290.75
20
-117.50000000000007
10
-305.75
20
-117.50000000000007
10
-305.75
20
-113.50000000000006
0
LWPOLYLINE
5
104
100
AcDbEntity
8
0
100
AcDbPolyline
90
28
70
1
43
0.0
10
-316.75000000000006
20
-5.0000000000000577
10
-316.75000000000006
20
24.999999999999947
10
-320.75
20
24.999999999999947
10
-320.75
20
36.49999999999995
10
-316.75000000000006
20
36.49999999999995
10
-316.75000000000006
20
47.499999999999943
10
-305.75
20
47.499999999999943
10
-305.75
20
51.49999999999995
10
-294.25000000000006
20
51.49999999999995
10
-294.25000000000006
20
47.499999999999943
10
-283.25
20
47.499999999999943
10
-283.25
20
36.49999999999995
10
-279.25000000000006
20
36.49999999999995
10
-279.25000000000006
20
24.999999999999947
10
-283.25
20
24.999999999999947
10
-283.25
20
-5.0000000000000533
10
-279.25000000000006
20
-5.0000000000000533
10
-279.25000000000006
20
-16.500000000000057
10
-283.25
20
-16.500000000000057
10
-283.25
20
-27.500000000000057
10
-294.25000000000006
20
-27.500000000000057
10
-294.25000000000006
20
-31.500000000000057
10
-305.75
20
-31.500000000000057
10
-305.75
20
-27.500000000000057
10
-316.75000000000006
20
-27.500000000000057
10
-316.75000000000006
20
-16.500000000000057
10
-320.75
20
-16.500000000000057
10
-320.75
20
-5.0000000000000533
0
ENDSEC
0
SECTION
2
OBJECTS
0
DICTIONARY
5
C
100
AcDbDictionary
3
ACAD_GROUP
350
D
3
ACAD_MLINESTYLE
350
17
0
DICTIONARY
5
D
100
AcDbDictionary
0
DICTIONARY
5
1A
330
C
100
AcDbDictionary
0
DICTIONARY
5
17
100
AcDbDictionary
0
ENDSEC
0
EOF
