0
SECTION
2
HEADER
9
$INSUNITS
70
4
9
$ACADVER
1
AC1014
9
$HANDSEED
5
FFFF
0
ENDSEC
0
SECTION
2
TABLES
0
TABLE
2
VPORT
5
8
100
AcDbSymbolTable
0
ENDTAB
0
TABLE
2
LTYPE
5
5
100
AcDbSymbolTable
0
LTYPE
5
14
100
AcDbSymbolTableRecord
100
AcDbLinetypeTableRecord
2
BYBLOCK
70
0
0
LTYPE
5
15
100
AcDbSymbolTableRecord
100
AcDbLinetypeTableRecord
2
BYLAYER
70
0
0
ENDTAB
0
TABLE
2
LAYER
5
2
100
AcDbSymbolTable
70
2
0
LAYER
5
50
100
AcDbSymbolTableRecord
100
AcDbLayerTableRecord
2
0
70
0
6
CONTINUOUS
0
ENDTAB
0
TABLE
2
STYLE
5
3
100
AcDbSymbolTable
70
1
0
STYLE
5
11
100
AcDbSymbolTableRecord
100
AcDbTextStyleTableRecord
2
STANDARD
70
0
0
ENDTAB
0
TABLE
2
VIEW
5
6
100
AcDbSymbolTable
70
0
0
ENDTAB
0
TABLE
2
UCS
5
7
100
AcDbSymbolTable
70
0
0
ENDTAB
0
TABLE
2
APPID
5
9
100
AcDbSymbolTable
70
2
0
APPID
5
12
100
AcDbSymbolTableRecord
100
AcDbRegAppTableRecord
2
ACAD
70
0
0
ENDTAB
0
TABLE
2
DIMSTYLE
5
A
100
AcDbSymbolTable
70
1
0
ENDTAB
0
TABLE
2
BLOCK_RECORD
5
1
100
AcDbSymbolTable
70
1
0
BLOCK_RECORD
5
1F
100
AcDbSymbolTableRecord
100
AcDbBlockTableRecord
2
*MODEL_SPACE
0
BLOCK_RECORD
5
1B
100
AcDbSymbolTableRecord
100
AcDbBlockTableRecord
2
*PAPER_SPACE
0
ENDTAB
0
ENDSEC
0
SECTION
2
BLOCKS
0
BLOCK
5
20
100
AcDbEntity
100
AcDbBlockBegin
2
*MODEL_SPACE
0
ENDBLK
5
21
100
AcDbEntity
100
AcDbBlockEnd
0
BLOCK
5
1C
100
AcDbEntity
100
AcDbBlockBegin
2
*PAPER_SPACE
0
ENDBLK
5
1D
100
AcDbEntity
100
AcDbBlockEnd
0
ENDSEC
0
SECTION
2
ENTITIES
0
LWPOLYLINE
5
100
100
AcDbEntity
8
0
100
AcDbPolyline
90
20
70
1
43
0.0
10
-242.50000000000031
20
-92.499999999999204
10
-242.50000000000031
20
-17.499999999999638
10
-227.5000000000004
20
-17.499999999999638
10
-227.5000000000004
20
-13.499999999999655
10
-212.50000000000045
20
-13.499999999999659
10
-212.50000000000045
20
-17.499999999999641
10
-197.50000000000057
20
-17.499999999999638
10
-197.50000000000057
20
-28.49999999999957
10
-201.50000000000057
20
-28.49999999999957
10
-201.50000000000057
20
-39.99999999999951
10
-197.50000000000057
20
-39.99999999999951
10
-197.50000000000057
20
-69.999999999999332
10
-201.50000000000057
20
-69.999999999999332
10
-201.50000000000057
20
-81.499999999999275
10
-197.50000000000057
20
-81.499999999999275
10
-197.50000000000057
20
-92.499999999999218
10
-212.50000000000051
20
-92.499999999999218
10
-212.50000000000051
20
-96.499999999999176
10
-227.50000000000043
20
-96.49999999999919
10
-227.5000000000004
20
-92.499999999999218
0
LWPOLYLINE
5
101
100
AcDbEntity
8
0
100
AcDbPolyline
90
20
70
1
43
0.0
10
-290.50000000000034
20
-92.500000000000313
10
-290.50000000000034
20
-17.50000000000032
10
-275.50000000000034
20
-17.50000000000032
10
-275.50000000000034
20
-13.500000000000316
10
-260.50000000000034
20
-13.500000000000316
10
-260.50000000000034
20
-17.50000000000032
10
-245.50000000000034
20
-17.50000000000032
10
-245.50000000000034
20
-28.500000000000316
10
-249.50000000000031
20
-28.500000000000316
10
-249.50000000000031
20
-40.00000000000032
10
-245.50000000000034
20
-40.00000000000032
10
-245.50000000000034
20
-70.000000000000313
10
-249.50000000000031
20
-70.000000000000313
10
-249.50000000000031
20
-81.500000000000327
10
-245.50000000000034
20
-81.500000000000327
10
-245.50000000000034
20
-92.500000000000313
10
-260.50000000000034
20
-92.500000000000313
10
-260.50000000000034
20
-96.500000000000327
10
-275.50000000000034
20
-96.500000000000327
10
-275.50000000000034
20
-92.500000000000313
0
LWPOLYLINE
5
102
100
AcDbEntity
8
0
100
AcDbPolyline
90
20
70
1
43
0.0
10
-245.50000000000034
20
-156.00000000000028
10
-249.50000000000031
20
-156.00000000000028
10
-249.50000000000031
20
-167.50000000000031
10
-245.50000000000034
20
-167.50000000000028
10
-245.50000000000034
20
-182.50000000000028
10
-260.50000000000034
20
-182.50000000000028
10
-260.50000000000034
20
-178.50000000000028
10
-275.50000000000034
20
-178.50000000000028
10
-275.50000000000034
20
-182.50000000000028
10
-290.50000000000034
20
-182.50000000000028
10
-290.50000000000034
20
-99.500000000000327
10
-275.50000000000034
20
-99.500000000000327
10
-275.50000000000034
20
-103.50000000000034
10
-260.50000000000034
20
-103.50000000000034
10
-260.50000000000034
20
-99.500000000000327
10
-245.50000000000034
20
-99.500000000000327
10
-245.50000000000034
20
-114.50000000000031
10
-249.50000000000031
20
-114.50000000000031
10
-249.50000000000031
20
-126.00000000000034
10
-245.50000000000034
20
-126.00000000000034
0
LWPOLYLINE
5
103
100
AcDbEntity
8
0
100
AcDbPolyline
90
20
70
1
43
0.0
10
-197.50000000000031
20
-155.99999999999915
10
-201.50000000000031
20
-155.99999999999915
10
-201.50000000000031
20
-167.49999999999915
10
-197.50000000000031
20
-167.49999999999915
10
-197.50000000000031
20
-182.49999999999915
10
-212.50000000000031
20
-182.49999999999915
10
-212.50000000000031
20
-178.49999999999915
10
-227.50000000000031
20
-178.49999999999915
10
-227.50000000000031
20
-182.49999999999915
10
-242.50000000000031
20
-182.49999999999915
10
-242.50000000000031
20
-99.499999999999176
10
-227.50000000000031
20
-99.499999999999176
10
-227.50000000000031
20
-103.49999999999918
10
-212.50000000000031
20
-103.49999999999918
10
-212.50000000000031
20
-99.499999999999176
10
-197.50000000000031
20
-99.499999999999176
10
-197.50000000000031
20
-114.49999999999916
10
-201.50000000000031
20
-114.49999999999916
10
-201.50000000000031
20
-125.99999999999918
10
-197.50000000000031
20
-125.99999999999918
0
LWPOLYLINE
5
104
100
AcDbEntity
8
0
100
AcDbPolyline
90
36
70
1
43
0.0
10
-211.50000000000031
20
-241.99999999999918
10
-211.50000000000031
20
-211.99999999999918
10
-207.50000000000028
20
-211.99999999999918
10
-207.50000000000028
20
-200.49999999999915
10
-211.50000000000031
20
-200.49999999999915
10
-211.50000000000031
20
-189.49999999999918
10
-222.50000000000028
20
-189.49999999999918
10
-222.50000000000028
20
-185.49999999999915
10
-234.00000000000034
20
-185.49999999999915
10
-234.00000000000034
20
-189.49999999999918
10
-264.00000000000034
20
-189.49999999999918
10
-264.00000000000034
20
-185.49999999999915
10
-275.50000000000034
20
-185.49999999999915
10
-275.50000000000034
20
-189.49999999999918
10
-286.50000000000034
20
-189.49999999999918
10
-286.50000000000034
20
-200.49999999999915
10
-290.50000000000034
20
-200.49999999999915
10
-290.50000000000034
20
-211.99999999999918
10
-286.50000000000034
20
-211.99999999999918
10
-286.50000000000034
20
-241.99999999999918
10
-290.50000000000034
20
-241.99999999999918
10
-290.50000000000034
20
-253.49999999999915
10
-286.50000000000034
20
-253.49999999999915
10
-286.50000000000034
20
-264.4999999999992
10
-275.50000000000034
20
-264.4999999999992
10
-275.50000000000034
20
-268.49999999999915
10
-264.00000000000034
20
-268.49999999999915
10
-264.00000000000034
20
-264.4999999999992
10
-234.00000000000034
20
-264.4999999999992
10
-234.00000000000034
20
-268.49999999999915
10
-222.50000000000028
20
-268.49999999999915
10
-222.50000000000028
20
-264.4999999999992
10
-211.50000000000031
20
-264.4999999999992
10
-211.50000000000031
20
-253.49999999999915
10
-207.50000000000028
20
-253.49999999999915
10
-207.50000000000028
20
-241.99999999999918
0
ENDSEC
0
SECTION
2
OBJECTS
0
DICTIONARY
5
C
100
AcDbDictionary
3
ACAD_GROUP
350
D
3
ACAD_MLINESTYLE
350
17
0
DICTIONARY
5
D
100
AcDbDictionary
0
DICTIONARY
5
1A
330
C
100
AcDbDictionary
0
DICTIONARY
5
17
100
AcDbDictionary
0
ENDSEC
0
EOF
