0
SECTION
2
HEADER
9
$INSUNITS
70
4
9
$ACADVER
1
AC1014
9
$HANDSEED
5
FFFF
0
ENDSEC
0
SECTION
2
TABLES
0
TABLE
2
VPORT
5
8
100
AcDbSymbolTable
0
ENDTAB
0
TABLE
2
LTYPE
5
5
100
AcDbSymbolTable
0
LTYPE
5
14
100
AcDbSymbolTableRecord
100
AcDbLinetypeTableRecord
2
BYBLOCK
70
0
0
LTYPE
5
15
100
AcDbSymbolTableRecord
100
AcDbLinetypeTableRecord
2
BYLAYER
70
0
0
ENDTAB
0
TABLE
2
LAYER
5
2
100
AcDbSymbolTable
70
2
0
LAYER
5
50
100
AcDbSymbolTableRecord
100
AcDbLayerTableRecord
2
0
70
0
6
CONTINUOUS
0
ENDTAB
0
TABLE
2
STYLE
5
3
100
AcDbSymbolTable
70
1
0
STYLE
5
11
100
AcDbSymbolTableRecord
100
AcDbTextStyleTableRecord
2
STANDARD
70
0
0
ENDTAB
0
TABLE
2
VIEW
5
6
100
AcDbSymbolTable
70
0
0
ENDTAB
0
TABLE
2
UCS
5
7
100
AcDbSymbolTable
70
0
0
ENDTAB
0
TABLE
2
APPID
5
9
100
AcDbSymbolTable
70
2
0
APPID
5
12
100
AcDbSymbolTableRecord
100
AcDbRegAppTableRecord
2
ACAD
70
0
0
ENDTAB
0
TABLE
2
DIMSTYLE
5
A
100
AcDbSymbolTable
70
1
0
ENDTAB
0
TABLE
2
BLOCK_RECORD
5
1
100
AcDbSymbolTable
70
1
0
BLOCK_RECORD
5
1F
100
AcDbSymbolTableRecord
100
AcDbBlockTableRecord
2
*MODEL_SPACE
0
BLOCK_RECORD
5
1B
100
AcDbSymbolTableRecord
100
AcDbBlockTableRecord
2
*PAPER_SPACE
0
ENDTAB
0
ENDSEC
0
SECTION
2
BLOCKS
0
BLOCK
5
20
100
AcDbEntity
100
AcDbBlockBegin
2
*MODEL_SPACE
0
ENDBLK
5
21
100
AcDbEntity
100
AcDbBlockEnd
0
BLOCK
5
1C
100
AcDbEntity
100
AcDbBlockBegin
2
*PAPER_SPACE
0
ENDBLK
5
1D
100
AcDbEntity
100
AcDbBlockEnd
0
ENDSEC
0
SECTION
2
ENTITIES
0
LWPOLYLINE
5
100
100
AcDbEntity
8
0
100
AcDbPolyline
90
20
70
1
43
0.0
10
14.999999999999911
20
122.5
10
14.999999999999911
20
118.5
10
26.499999999999932
20
118.5
10
26.499999999999932
20
122.5
10
41.499999999999915
20
122.5
10
41.499999999999915
20
107.5
10
37.499999999999915
20
107.5
10
37.499999999999915
20
92.5
10
41.499999999999915
20
92.5
10
41.499999999999915
20
77.5
10
-41.500000000000057
20
77.5
10
-41.500000000000057
20
92.5
10
-37.500000000000057
20
92.5
10
-37.500000000000057
20
107.5
10
-41.500000000000057
20
107.5
10
-41.500000000000057
20
122.5
10
-26.500000000000075
20
122.5
10
-26.500000000000075
20
118.5
10
-15.000000000000053
20
118.5
10
-15.000000000000053
20
122.5
0
LWPOLYLINE
5
101
100
AcDbEntity
8
0
100
AcDbPolyline
90
20
70
1
43
0.0
10
-60.000000000000085
20
22.5
10
-60.000000000000085
20
18.5
10
-48.500000000000071
20
18.5
10
-48.500000000000071
20
22.5
10
-33.500000000000085
20
22.5
10
-33.500000000000085
20
7.5
10
-37.500000000000085
20
7.5
10
-37.500000000000085
20
-7.5
10
-33.500000000000085
20
-7.5
10
-33.500000000000085
20
-22.5
10
-116.50000000000006
20
-22.5
10
-116.50000000000006
20
-7.5
10
-112.50000000000006
20
-7.5
10
-112.50000000000006
20
7.5
10
-116.50000000000006
20
7.5
10
-116.50000000000006
20
22.5
10
-101.50000000000007
20
22.5
10
-101.50000000000007
20
18.5
10
-90.000000000000057
20
18.5
10
-90.000000000000057
20
22.5
0
LWPOLYLINE
5
102
100
AcDbEntity
8
0
100
AcDbPolyline
90
24
70
1
43
0.0
10
-227.5
20
58.249999999999993
10
-227.5
20
-58.250000000000014
10
-242.5
20
-58.250000000000014
10
-242.5
20
-62.250000000000014
10
-257.5
20
-62.250000000000014
10
-257.5
20
-58.250000000000014
10
-272.5
20
-58.250000000000014
10
-272.5
20
-47.250000000000014
10
-268.5
20
-47.250000000000014
10
-268.5
20
-35.750000000000014
10
-272.5
20
-35.750000000000014
10
-272.5
20
-5.7500000000000107
10
-268.5
20
-5.7500000000000107
10
-268.5
20
5.7499999999999929
10
-272.5
20
5.7499999999999929
10
-272.5
20
35.749999999999993
10
-268.5
20
35.749999999999993
10
-268.5
20
47.250000000000014
10
-272.5
20
47.25
10
-272.5
20
58.249999999999993
10
-257.5
20
58.249999999999993
10
-257.5
20
62.25
10
-242.5
20
62.25
10
-242.5
20
58.249999999999993
0
LWPOLYLINE
5
103
100
AcDbEntity
8
0
100
AcDbPolyline
90
24
70
1
43
0.0
10
-302.5
20
58.250000000000064
10
-302.5
20
-58.249999999999943
10
-317.5
20
-58.249999999999943
10
-317.5
20
-62.249999999999943
10
-332.5
20
-62.249999999999943
10
-332.5
20
-58.249999999999943
10
-347.5
20
-58.249999999999943
10
-347.5
20
-47.249999999999943
10
-343.5
20
-47.249999999999943
10
-343.5
20
-35.749999999999943
10
-347.5
20
-35.749999999999943
10
-347.5
20
-5.7499999999999396
10
-343.5
20
-5.7499999999999396
10
-343.5
20
5.7500000000000639
10
-347.5
20
5.7500000000000639
10
-347.5
20
35.750000000000064
10
-343.5
20
35.750000000000064
10
-343.5
20
47.250000000000085
10
-347.5
20
47.250000000000071
10
-347.5
20
58.250000000000064
10
-332.5
20
58.250000000000064
10
-332.5
20
62.250000000000071
10
-317.5
20
62.250000000000071
10
-317.5
20
58.250000000000064
0
LWPOLYLINE
5
104
100
AcDbEntity
8
0
100
AcDbPolyline
90
44
70
1
43
0.0
10
-423.5
20
62.25
10
-423.5
20
58.249999999999993
10
-412.5
20
58.249999999999993
10
-412.5
20
47.25
10
-408.5
20
47.25
10
-408.5
20
35.749999999999993
10
-412.5
20
35.749999999999993
10
-412.5
20
5.749999999999984
10
-408.5
20
5.7499999999999929
10
-408.5
20
-5.7500000000000107
10
-412.5
20
-5.7500000000000107
10
-412.5
20
-35.750000000000014
10
-408.5
20
-35.750000000000014
10
-408.5
20
-47.250000000000014
10
-412.5
20
-47.250000000000014
10
-412.5
20
-58.250000000000014
10
-423.5
20
-58.250000000000014
10
-423.5
20
-62.250000000000014
10
-435.00000000000006
20
-62.250000000000014
10
-435.00000000000006
20
-58.250000000000014
10
-465.00000000000006
20
-58.250000000000014
10
-465.00000000000006
20
-62.250000000000014
10
-476.50000000000006
20
-62.250000000000014
10
-476.50000000000006
20
-58.250000000000014
10
-487.50000000000006
20
-58.250000000000014
10
-487.50000000000006
20
-47.250000000000014
10
-491.50000000000006
20
-47.250000000000014
10
-491.50000000000006
20
-35.750000000000014
10
-487.50000000000006
20
-35.750000000000014
10
-487.50000000000006
20
-5.7500000000000107
10
-491.50000000000006
20
-5.7500000000000107
10
-491.50000000000006
20
5.7499999999999929
10
-487.50000000000006
20
5.7499999999999929
10
-487.50000000000006
20
35.749999999999993
10
-491.50000000000006
20
35.749999999999993
10
-491.50000000000006
20
47.25
10
-487.50000000000006
20
47.25
10
-487.50000000000006
20
58.249999999999993
10
-476.50000000000006
20
58.249999999999993
10
-476.50000000000006
20
62.25
10
-465.00000000000006
20
62.25
10
-465.00000000000006
20
58.249999999999993
10
-435.00000000000006
20
58.249999999999993
10
-435
20
62.25
0
ENDSEC
0
SECTION
2
OBJECTS
0
DICTIONARY
5
C
100
AcDbDictionary
3
ACAD_GROUP
350
D
3
ACAD_MLINESTYLE
350
17
0
DICTIONARY
5
D
100
AcDbDictionary
0
DICTIONARY
5
1A
330
C
100
AcDbDictionary
0
DICTIONARY
5
17
100
AcDbDictionary
0
ENDSEC
0
EOF
